<?xml version="1.0" encoding="utf-8"?>
<!--
	BSD License

	Copyright© 2013, Mapbox, LLC. All rights reserved.

	Redistribution and use in source and binary forms, with or without modification,
	are permitted provided that the following conditions are met:

	* Redistributions of source code must retain the above copyright notice, this
	list of conditions and the following disclaimer.

	* Redistributions in binary form must reproduce the above copyright notice, this
	list of conditions and the following disclaimer in the documentation and/or
	other materials provided with the distribution.

	* Neither the name of the Mapbox, LLC. nor the names of its
	contributors may be used to endorse or promote products derived from this
	software without specific prior written permission.

	THIS SOFTWARE IS PROVIDED BY THE COPYRIGHT HOLDERS AND CONTRIBUTORS "AS IS" AND
	ANY EXPRESS OR IMPLIED WARRANTIES, INCLUDING, BUT NOT LIMITED TO, THE IMPLIED
	WARRANTIES OF MERCHANTABILITY AND FITNESS FOR A PARTICULAR PURPOSE ARE
	DISCLAIMED. IN NO EVENT SHALL THE COPYRIGHT OWNER OR CONTRIBUTORS BE LIABLE FOR
	ANY DIRECT, INDIRECT, INCIDENTAL, SPECIAL, EXEMPLARY, OR CONSEQUENTIAL DAMAGES
	(INCLUDING, BUT NOT LIMITED TO, PROCUREMENT OF SUBSTITUTE GOODS OR SERVICES;
	LOSS OF USE, DATA, OR PROFITS; OR BUSINESS INTERRUPTION) HOWEVER CAUSED AND ON
	ANY THEORY OF LIABILITY, WHETHER IN CONTRACT, STRICT LIABILITY, OR TORT
	(INCLUDING NEGLIGENCE OR OTHERWISE) ARISING IN ANY WAY OUT OF THE USE OF THIS
	SOFTWARE, EVEN IF ADVISED OF THE POSSIBILITY OF SUCH DAMAGE.
-->
<!-- Generator: Adobe Illustrator 20.0.0, SVG Export Plug-In . SVG Version: 6.00 Build 0)  -->
<svg version="1.1" id="Icons" xmlns="http://www.w3.org/2000/svg" xmlns:xlink="http://www.w3.org/1999/xlink" x="0px" y="0px"
	 width="14px" height="14px" viewBox="0 0 14 14" enable-background="new 0 0 14 14" xml:space="preserve">
<g>
	<polygon fill="#FFFFFF" points="0,5 0,6 13,1 13,0 	"/>
	<polygon fill="#FFFFFF" points="2,13 2,5 1,5 1,14 13,14 13,13 	"/>
	<polygon fill="#FFFFFF" points="4,12 5,12 5,11 5,9 6,10 6,11 6,12 7,12 7,10 6,9 9,9 9,12 10,12 10,8 11,6 13,6 11,4 8,7 4,7 	"/>
</g>
</svg>
